#!OML:ASF H:\Male1\Project 1\Capture day 1\Session 1\Male1.ASF
:FULLY-SPECIFIED
:DEGREES
416
root 8.42315 15.4351 3.89476 176.453 7.86347 -179.79
lowerback 8.4913 1.76277 -1.26588
upperback 4.00438 2.58092 -1.52132
thorax -0.595232 1.43735 -1.08577
lowerneck -6.05846 8.08712 11.6545
upperneck 4.50531 10.3927 -8.66048
head 3.38638 5.07925 -3.92252
rclavicle -2.70347e-014 3.97569e-015
rhumerus -8.08138 -20.2418 -31.9248
rradius 110.191
rwrist -8.72243
rhand -31.3238 28.4949
rfingers 7.12502
rthumb -4.59584 -1.43526
lclavicle -2.70347e-014 3.97569e-015
lhumerus -13.4819 25.4407 29.8854
lradius 120.819
lwrist -5.60455
lhand -35.4701 -14.5461
lfingers 7.12502
lthumb -8.59841 15.2588
rfemur -0.886937 16.5514 21.2464
rtibia 21.7839
rfoot -28.7474 -31.4151
rtoes -14.6569
lfemur 1.16148 -19.9517 -18.4113
ltibia 19.8648
lfoot -21.7299 30.7491
ltoes -8.40448
417
root 8.42655 15.436 3.89268 176.494 7.84884 -179.723
lowerback 8.46922 1.75621 -1.20175
upperback 3.98334 2.57388 -1.51792
thorax -0.602505 1.43318 -1.11714
lowerneck -5.9782 8.08647 11.7796
upperneck 4.45509 10.396 -8.77231
head 3.37128 5.08119 -3.97937
rclavicle 8.64713e-015 -3.18055e-015
rhumerus -8.0289 -20.0672 -31.5812
rradius 110.269
rwrist -8.84068
rhand -32.0172 29.3142
rfingers 7.12502
rthumb -5.26533 -0.600421
lclavicle 8.64713e-015 -3.18055e-015
lhumerus -13.3671 25.4175 29.7843
lradius 120.804
lwrist -5.07156
lhand -36.6334 -16.2643
lfingers 7.12502
lthumb -9.72095 13.4913
rfemur -0.867703 16.6004 21.3358
rtibia 21.7141
rfoot -28.7543 -31.4723
rtoes -14.6122
lfemur 1.09885 -19.9721 -18.318
ltibia 19.9226
lfoot -21.7505 30.7606
ltoes -8.43342
418
root 8.42965 15.4366 3.8903 176.544 7.84272 -179.654
lowerback 8.43755 1.74237 -1.14876
upperback 3.96168 2.55572 -1.49621
thorax -0.606615 1.42273 -1.12209
lowerneck -5.89534 8.08545 11.8435
upperneck 4.38391 10.4006 -8.84945
head 3.34448 5.08394 -4.01667
rclavicle 7.15625e-015 -2.3059e-014
rhumerus -7.97515 -19.8462 -31.2423
rradius 110.387
rwrist -8.94649
rhand -32.5012 29.9981
rfingers 7.12502
rthumb -5.73269 0.0956499
lclavicle 7.15625e-015 -2.3059e-014
lhumerus -13.3698 25.3548 29.6482
lradius 120.817
lwrist -4.61644
lhand -37.7049 -17.7954
lfingers 7.12502
lthumb -10.7546 11.9093
rfemur -0.849995 16.6724 21.4281
rtibia 21.6328
rfoot -28.7889 -31.5356
rtoes -14.5137
lfemur 1.0254 -19.9825 -18.2201
ltibia 19.9868
lfoot -21.7531 30.7744
ltoes -8.51136
419
root 8.43246 15.4374 3.88768 176.601 7.84437 -179.599
lowerback 8.40495 1.72105 -1.11777
upperback 3.93578 2.52521 -1.46568
thorax -0.616034 1.40545 -1.10465
lowerneck -5.809 8.08913 11.8402
upperneck 4.29186 10.4123 -8.87354
head 3.30512 5.09082 -4.02749
rclavicle -1.23246e-014 2.38542e-015
rhumerus -7.94806 -19.5643 -30.9124
rradius 110.538
rwrist -8.94195
rhand -32.6157 30.4595
rfingers 7.12502
rthumb -5.8432 0.560083
lclavicle -1.23246e-014 2.38542e-015
lhumerus -13.5064 25.2195 29.4618
lradius 120.849
lwrist -4.40245
lhand -38.4649 -18.8517
lfingers 7.12502
lthumb -11.4876 10.8136
rfemur -0.848628 16.7467 21.4982
rtibia 21.5635
rfoot -28.8819 -31.5512
rtoes -14.2669
lfemur 0.954246 -19.9862 -18.1344
ltibia 20.0343
lfoot -21.7452 30.7883
ltoes -8.60323
420
root 8.43507 15.4383 3.88488 176.656 7.84986 -179.578
lowerback 8.37919 1.69772 -1.12409
upperback 3.90756 2.48928 -1.441
thorax -0.632856 1.38521 -1.07225
lowerneck -5.72318 8.09887 11.7944
upperneck 4.18531 10.4311 -8.84988
head 3.25733 5.10185 -4.01698
rclavicle 2.98177e-015 -7.95139e-016
rhumerus -7.98969 -19.2158 -30.5927
rradius 110.712
rwrist -8.7769
rhand -32.35 30.738
rfingers 7.12502
rthumb -5.58667 0.831657
lclavicle 2.98177e-015 -7.95139e-016
lhumerus -13.7567 24.9775 29.2388
lradius 120.879
lwrist -4.48538
lhand -38.8202 -19.4147
lfingers 7.12502
lthumb -11.8302 10.2311
rfemur -0.870755 16.7874 21.5182
rtibia 21.5259
rfoot -28.9748 -31.5173
rtoes -14.0229
lfemur 0.90073 -19.9855 -18.0865
ltibia 20.0481
lfoot -21.746 30.7922
ltoes -8.62769
421
root 8.43762 15.4392 3.88204 176.697 7.85635 -179.604
lowerback 8.36793 1.67884 -1.17642
upperback 3.88114 2.45672 -1.43109
thorax -0.656802 1.36686 -1.03014
lowerneck -5.64082 8.11163 11.7396
upperneck 4.07472 10.4521 -8.8037
head 3.20739 5.11445 -3.99807
rclavicle -5.9536e-014 3.18055e-014
rhumerus -8.12676 -18.7918 -30.2794
rradius 110.896
rwrist -8.46568
rhand -31.8372 30.8976
rfingers 7.12502
rthumb -5.09154 0.978723
lclavicle -5.9536e-014 3.18055e-014
lhumerus -14.0858 24.6225 29.006
lradius 120.891
lwrist -4.78942
lhand -38.8076 -19.6737
lfingers 7.12502
lthumb -11.8181 9.9728
rfemur -0.913767 16.7791 21.4789
rtibia 21.5329
rfoot -29.0061 -31.4628
rtoes -13.9519
lfemur 0.87888 -19.9776 -18.0922
ltibia 20.0195
lfoot -21.7542 30.7835
ltoes -8.56647
422
root 8.4402 15.4396 3.87939 176.721 7.85872 -179.66
lowerback 8.37599 1.66579 -1.25376
upperback 3.85927 2.43114 -1.43568
thorax -0.68684 1.35257 -0.990217
lowerneck -5.56265 8.12151 11.7056
upperneck 3.96737 10.468 -8.76621
head 3.16014 5.12438 -3.98523
rclavicle 1.26228e-014 -3.65764e-014
rhumerus -8.37191 -18.2921 -29.9694
rradius 111.084
rwrist -8.0707
rhand -31.2431 31.0195
rfingers 7.12502
rthumb -4.51786 1.08769
lclavicle 1.26228e-014 -3.65764e-014
lhumerus -14.4496 24.1866 28.7801
lradius 120.88
lwrist -5.21253
lhand -38.515 -19.8285
lfingers 7.12502
lthumb -11.536 9.83406
rfemur -0.970791 16.7334 21.4054
rtibia 21.5889
rfoot -29.0076 -31.3946
rtoes -13.9853
lfemur 0.89178 -19.9519 -18.1319
ltibia 19.9498
lfoot -21.7418 30.7595
ltoes -8.48383
423
root 8.44301 15.4396 3.87704 176.725 7.85072 -179.729
lowerback 8.40473 1.66073 -1.33851
upperback 3.84361 2.41683 -1.45383
thorax -0.721341 1.34473 -0.961727
lowerneck -5.48499 8.11139 11.6754
upperneck 3.85877 10.4562 -8.72456
head 3.10978 5.12075 -3.97389
rclavicle 1.00386e-014 1.82882e-014
rhumerus -8.72954 -17.7382 -29.6563
rradius 111.268
rwrist -7.66864
rhand -30.6386 31.271
rfingers 7.12502
rthumb -3.93415 1.32762
lclavicle 1.00386e-014 1.82882e-014
lhumerus -14.7938 23.6879 28.5689
lradius 120.84
lwrist -5.64022
lhand -38.0172 -20.0988
lfingers 7.12502
lthumb -11.0559 9.59002
rfemur -1.03046 16.6759 21.323
rtibia 21.6851
rfoot -29.0228 -31.3284
rtoes -14.0386
lfemur 0.931635 -19.8963 -18.1858
ltibia 19.8524
lfoot -21.6732 30.7199
ltoes -8.47274
424
root 8.44629 15.439 3.87499 176.711 7.82715 -179.81
lowerback 8.45021 1.66311 -1.4283
upperback 3.83635 2.41346 -1.48444
thorax -0.755891 1.34324 -0.944666
lowerneck -5.42598 8.07658 11.6997
upperneck 3.77592 10.4107 -8.74385
head 3.07307 5.09918 -3.99071
rclavicle -4.87022e-015 1.27222e-014
rhumerus -9.1762 -17.158 -29.3417
rradius 111.439
rwrist -7.32061
rhand -30.1274 31.5885
rfingers 7.12502
rthumb -3.44045 1.6365
lclavicle -4.87022e-015 1.27222e-014
lhumerus -15.0823 23.1472 28.3561
lradius 120.762
lwrist -6.01883
lhand -37.3927 -20.1672
lfingers 7.12502
lthumb -10.4534 9.55295
rfemur -1.07976 16.634 21.2416
rtibia 21.8055
rfoot -29.0846 -31.2767
rtoes -14.0432
lfemur 0.987765 -19.8113 -18.2492
ltibia 19.7451
lfoot -21.5371 30.6716
ltoes -8.60317
425
root 8.45004 15.4379 3.87312 176.686 7.78549 -179.894
lowerback 8.50177 1.66626 -1.51884
upperback 3.83828 2.4124 -1.52207
thorax -0.783942 1.3436 -0.934634
lowerneck -5.39054 8.02475 11.7704
upperneck 3.72493 10.3424 -8.82494
head 3.05328 5.0648 -4.03357
rclavicle 1.59028e-014 -1.35174e-014
rhumerus -9.66882 -16.56 -29.0276
rradius 111.593
rwrist -7.06184
rhand -29.6323 32.1003
rfingers 7.12502
rthumb -2.96235 2.14111
lclavicle 1.59028e-014 -1.35174e-014
lhumerus -15.3172 22.578 28.1067
lradius 120.629
lwrist -6.35994
lhand -36.6198 -20.4111
lfingers 7.12502
lthumb -9.70785 9.34514
rfemur -1.11487 16.6162 21.1678
rtibia 21.9352
rfoot -29.2077 -31.237
rtoes -13.9526
lfemur 1.04765 -19.7095 -18.3138
ltibia 19.6406
lfoot -21.3585 30.6118
ltoes -8.83021
426
root 8.45395 15.4367 3.8712 176.66 7.72774 -179.982
lowerback 8.54976 1.66669 -1.61087
upperback 3.84686 2.40857 -1.5636
thorax -0.803032 1.34295 -0.927245
lowerneck -5.37562 7.96837 11.8722
upperneck 3.70278 10.268 -8.95035
head 3.04881 5.02634 -4.09382
rclavicle -3.88624e-014 8.74653e-015
rhumerus -10.1772 -15.9365 -28.702
rradius 111.729
rwrist -6.89015
rhand -29.1895 32.6713
rfingers 7.12502
rthumb -2.53473 2.70658
lclavicle -3.88624e-014 8.74653e-015
lhumerus -15.5098 21.9632 27.79
lradius 120.439
lwrist -6.71033
lhand -35.6643 -21.1293
lfingers 7.12502
lthumb -8.78587 8.66785
rfemur -1.14154 16.6071 21.0949
rtibia 22.063
rfoot -29.35 -31.2109
rtoes -13.8435
lfemur 1.09862 -19.6039 -18.3787
ltibia 19.5468
lfoot -21.1656 30.538
ltoes -9.08318
427
root 8.45773 15.4357 3.86915 176.64 7.65975 -180.071
lowerback 8.59053 1.66561 -1.69751
upperback 3.85815 2.40366 -1.61007
thorax -0.814903 1.34202 -0.92752
lowerneck -5.37089 7.9182 11.9972
upperneck 3.69855 10.2019 -9.10018
head 3.05459 4.99143 -4.1638
rclavicle -1.55052e-014 -1.03368e-014
rhumerus -10.6959 -15.2707 -28.3462
rradius 111.844
rwrist -6.78571
rhand -28.8277 33.1944
rfingers 7.12502
rthumb -2.18533 3.22589
lclavicle -1.55052e-014 -1.03368e-014
lhumerus -15.6546 21.264 27.3871
lradius 120.196
lwrist -7.08343
lhand -34.6188 -22.1968
lfingers 7.12502
lthumb -7.77683 7.6402
rfemur -1.16907 16.5807 21.0169
rtibia 22.1824
rfoot -29.4624 -31.1903
rtoes -13.7953
lfemur 1.13302 -19.5078 -18.4413
ltibia 19.4666
lfoot -20.986 30.4542
ltoes -9.32059
428
root 8.46109 15.4353 3.86713 176.629 7.59113 -180.152
lowerback 8.62749 1.66613 -1.76947
upperback 3.87073 2.40223 -1.65962
thorax -0.822617 1.34306 -0.939331
lowerneck -5.36626 7.88133 12.1296
upperneck 3.70078 10.1532 -9.247
head 3.0642 4.96538 -4.23268
rclavicle 8.05078e-015 3.02153e-014
rhumerus -11.2278 -14.5376 -27.9263
rradius 111.932
rwrist -6.75072
rhand -28.574 33.6042
rfingers 7.12502
rthumb -1.94026 3.63327
lclavicle 8.05078e-015 3.02153e-014
lhumerus -15.7487 20.4417 26.8918
lradius 119.907
lwrist -7.45402
lhand -33.617 -23.2699
lfingers 7.12502
lthumb -6.80983 6.60062
rfemur -1.20583 16.5104 20.9354
rtibia 22.2931
rfoot -29.5038 -31.165
rtoes -13.8708
lfemur 1.15294 -19.4287 -18.4951
ltibia 19.3972
lfoot -20.8437 30.3626
ltoes -9.48727
429
root 8.46387 15.4354 3.8654 176.622 7.53327 -180.218
lowerback 8.67056 1.6724 -1.82693
upperback 3.88744 2.4099 -1.70433
thorax -0.829058 1.34891 -0.955251
lowerneck -5.35998 7.85756 12.2429
upperneck 3.69804 10.1216 -9.36732
head 3.07134 4.94824 -4.2895
rclavicle 8.05078e-015 -1.11319e-014
rhumerus -11.7646 -13.7065 -27.39
rradius 111.988
rwrist -6.79734
rhand -28.4557 33.8624
rfingers 7.12502
rthumb -1.82599 3.89042
lclavicle 8.05078e-015 -1.11319e-014
lhumerus -15.8006 19.4686 26.3124
lradius 119.586
lwrist -7.75032
lhand -32.7736 -24.0486
lfingers 7.12502
lthumb -5.99566 5.84656
rfemur -1.25372 16.3895 20.8552
rtibia 22.3993
rfoot -29.4413 -31.1341
rtoes -14.1233
lfemur 1.16823 -19.3537 -18.5342
ltibia 19.3328
lfoot -20.735 30.2603
ltoes -9.56237
430
root 8.46607 15.4363 3.86415 176.617 7.49528 -180.255
lowerback 8.72984 1.68416 -1.86267
upperback 3.90987 2.4266 -1.73334
thorax -0.838335 1.35946 -0.96849
lowerneck -5.34714 7.84832 12.3405
upperneck 3.67426 10.1096 -9.47782
head 3.07185 4.94098 -4.34004
rclavicle -1.40143e-014 2.06736e-014
rhumerus -12.2894 -12.7392 -26.6931
rradius 112.017
rwrist -6.92918
rhand -28.4838 33.9409
rfingers 7.12502
rthumb -1.85322 3.96917
lclavicle -1.40143e-014 2.06736e-014
lhumerus -15.8237 18.3483 25.6531
lradius 119.259
lwrist -7.9538
lhand -32.162 -24.3091
lfingers 7.12502
lthumb -5.40514 5.60196
rfemur -1.31333 16.2378 20.7955
rtibia 22.508
rfoot -29.3001 -31.0845
rtoes -14.4739
lfemur 1.18688 -19.2639 -18.5405
ltibia 19.2661
lfoot -20.6357 30.1497
ltoes -9.59329
